<svg xmlns="http://www.w3.org/2000/svg" xmlns:xlink="http://www.w3.org/1999/xlink" viewBox="0,0,256,256" width="128px" height="128px" fill-rule="nonzero"><g fill="#f9d347" fill-rule="nonzero" stroke="none" stroke-width="1" stroke-linecap="butt" stroke-linejoin="miter" stroke-miterlimit="10" stroke-dasharray="" stroke-dashoffset="0" font-family="none" font-weight="none" font-size="none" text-anchor="none" style="mix-blend-mode: normal"><g transform="scale(2,2)"><path d="M16,61v6c0,1.7 1.3,3 3,3c1.7,0 3,-1.3 3,-3v-6c0,-1.7 -1.3,-3 -3,-3c-1.7,0 -3,1.3 -3,3zM37.4,104.1l5.2,3c0.5,0.3 1,0.4 1.5,0.4c1,0 2,-0.5 2.6,-1.5c0.8,-1.4 0.3,-3.3 -1.1,-4.1l-5.2,-3c-1.4,-0.8 -3.3,-0.3 -4.1,1.1c-0.8,1.4 -0.3,3.3 1.1,4.1zM87.6,98.9l-5.2,3c-1.4,0.8 -1.9,2.7 -1.1,4.1c0.6,1 1.6,1.5 2.6,1.5c0.5,0 1,-0.1 1.5,-0.4l5.2,-3c1.4,-0.8 1.9,-2.7 1.1,-4.1c-0.8,-1.4 -2.6,-1.9 -4.1,-1.1zM106,61v6c0,1.7 1.3,3 3,3c1.7,0 3,-1.3 3,-3v-6c0,-1.7 -1.3,-3 -3,-3c-1.7,0 -3,1.3 -3,3zM87.6,29.1c0.5,0.3 1,0.4 1.5,0.4c1,0 2,-0.5 2.6,-1.5c0.8,-1.4 0.3,-3.3 -1.1,-4.1l-5.2,-3c-1.4,-0.8 -3.3,-0.3 -4.1,1.1c-0.8,1.4 -0.3,3.3 1.1,4.1zM42.6,20.9l-5.2,3c-1.4,0.8 -1.9,2.7 -1.1,4.1c0.6,1 1.6,1.5 2.6,1.5c0.5,0 1,-0.1 1.5,-0.4l5.2,-3c1.4,-0.8 1.9,-2.7 1.1,-4.1c-0.8,-1.4 -2.7,-1.9 -4.1,-1.1zM77,13c0,-7.2 -5.8,-13 -13,-13c-7.2,0 -13,5.8 -13,13c0,7.2 5.8,13 13,13c7.2,0 13,-5.8 13,-13zM57,13c0,-3.9 3.1,-7 7,-7c3.9,0 7,3.1 7,7c0,3.9 -3.1,7 -7,7c-3.9,0 -7,-3.1 -7,-7zM77,115c0,-7.2 -5.8,-13 -13,-13c-7.2,0 -13,5.8 -13,13c0,7.2 5.8,13 13,13c7.2,0 13,-5.8 13,-13zM57,115c0,-3.9 3.1,-7 7,-7c3.9,0 7,3.1 7,7c0,3.9 -3.1,7 -7,7c-3.9,0 -7,-3.1 -7,-7zM109,103c7.2,0 13,-5.8 13,-13c0,-7.2 -5.8,-13 -13,-13c-7.2,0 -13,5.8 -13,13c0,7.2 5.8,13 13,13zM109,83c3.9,0 7,3.1 7,7c0,3.9 -3.1,7 -7,7c-3.9,0 -7,-3.1 -7,-7c0,-3.9 3.1,-7 7,-7zM122,38c0,-7.2 -5.8,-13 -13,-13c-7.2,0 -13,5.8 -13,13c0,7.2 5.8,13 13,13c7.2,0 13,-5.8 13,-13zM109,45c-3.9,0 -7,-3.1 -7,-7c0,-3.9 3.1,-7 7,-7c3.9,0 7,3.1 7,7c0,3.9 -3.1,7 -7,7zM32,38c0,-7.2 -5.8,-13 -13,-13c-7.2,0 -13,5.8 -13,13c0,7.2 5.8,13 13,13c7.2,0 13,-5.8 13,-13zM19,45c-3.9,0 -7,-3.1 -7,-7c0,-3.9 3.1,-7 7,-7c3.9,0 7,3.1 7,7c0,3.9 -3.1,7 -7,7zM19,103c7.2,0 13,-5.8 13,-13c0,-7.2 -5.8,-13 -13,-13c-7.2,0 -13,5.8 -13,13c0,7.2 5.8,13 13,13zM19,83c3.9,0 7,3.1 7,7c0,3.9 -3.1,7 -7,7c-3.9,0 -7,-3.1 -7,-7c0,-3.9 3.1,-7 7,-7zM36,64c0,15.4 12.6,28 28,28c15.4,0 28,-12.6 28,-28c0,-15.4 -12.6,-28 -28,-28c-15.4,0 -28,12.6 -28,28zM64,42c12.1,0 22,9.9 22,22c0,12.1 -9.9,22 -22,22c-12.1,0 -22,-9.9 -22,-22c0,-12.1 9.9,-22 22,-22z"></path></g></g></svg>