<svg width="584" height="227" viewBox="0 0 584 227" fill="none" xmlns="http://www.w3.org/2000/svg">
<path fill-rule="evenodd" clip-rule="evenodd" d="M255.712 145.893L229.7 104.97H217.865V145.893H209.239V50.0059H239.664C242.918 50.0059 245.971 50.6299 248.824 51.8781C251.677 53.0817 254.174 54.7534 256.313 56.8931C258.453 59.0329 260.125 61.5515 261.328 64.4491C262.577 67.3021 263.201 70.3556 263.201 73.6098V81.3664C263.201 84.6205 262.577 87.6964 261.328 90.594C260.125 93.4469 258.453 95.9433 256.313 98.083C254.174 100.223 251.677 101.917 248.824 103.165C245.971 104.369 242.918 104.97 239.664 104.97L265.675 145.893H255.712ZM254.575 73.6098C254.575 71.4701 254.174 69.4864 253.371 67.6587C252.569 65.7864 251.477 64.1593 250.095 62.7774C248.713 61.3509 247.086 60.2365 245.214 59.4341C243.386 58.6317 241.402 58.2305 239.262 58.2305H217.865V96.7457H239.262C241.402 96.7457 243.386 96.3445 245.214 95.5421C247.086 94.7397 248.713 93.6475 250.095 92.2656C251.477 90.8391 252.569 89.2121 253.371 87.3844C254.174 85.5121 254.575 83.5061 254.575 81.3664V73.6098Z" fill="white"/>
<path fill-rule="evenodd" clip-rule="evenodd" d="M318.339 127.103C318.339 129.867 317.804 132.475 316.734 134.927C315.709 137.378 314.282 139.518 312.455 141.346C310.627 143.174 308.487 144.622 306.036 145.692C303.584 146.717 300.976 147.23 298.212 147.23H292.729C289.965 147.23 287.357 146.717 284.906 145.692C282.454 144.622 280.314 143.174 278.486 141.346C276.659 139.518 275.21 137.378 274.14 134.927C273.115 132.475 272.602 129.867 272.602 127.103V96.2108C272.602 93.4469 273.115 90.8391 274.14 88.3874C275.21 85.9356 276.659 83.7958 278.486 81.9682C280.314 80.1405 282.454 78.714 284.906 77.6887C287.357 76.6188 289.965 76.0839 292.729 76.0839H298.212C300.976 76.0839 303.584 76.6188 306.036 77.6887C308.487 78.714 310.627 80.1405 312.455 81.9682C314.282 83.7958 315.709 85.9356 316.734 88.3874C317.804 90.8391 318.339 93.4469 318.339 96.2108V127.103ZM310.114 95.7427C310.114 94.0933 309.802 92.5554 309.178 91.1289C308.554 89.6578 307.707 88.3874 306.637 87.3175C305.567 86.2476 304.297 85.4006 302.826 84.7766C301.399 84.1525 299.862 83.8404 298.212 83.8404H292.729C291.08 83.8404 289.519 84.1525 288.048 84.7766C286.622 85.4006 285.374 86.2476 284.304 87.3175C283.234 88.3874 282.387 89.6578 281.763 91.1289C281.139 92.5554 280.827 94.0933 280.827 95.7427V127.571C280.827 129.221 281.139 130.781 281.763 132.252C282.387 133.678 283.234 134.927 284.304 135.996C285.374 137.066 286.622 137.913 288.048 138.537C289.519 139.162 291.08 139.474 292.729 139.474H298.212C299.862 139.474 301.399 139.162 302.826 138.537C304.297 137.913 305.567 137.066 306.637 135.996C307.707 134.927 308.554 133.678 309.178 132.252C309.802 130.781 310.114 129.221 310.114 127.571V95.7427Z" fill="white"/>
<path fill-rule="evenodd" clip-rule="evenodd" d="M372.073 134.927C373.143 132.475 373.678 129.867 373.678 127.103V96.2108C373.678 93.4469 373.143 90.8391 372.073 88.3874C371.048 85.9356 369.621 83.7958 367.794 81.9682C365.966 80.1405 363.826 78.714 361.374 77.6887C358.923 76.6188 356.315 76.0839 353.551 76.0839H351.478C348.402 76.0839 345.549 76.708 342.919 77.9562C340.289 79.2043 338.038 80.9429 336.166 83.1718V50.0059H327.941V127.103C327.941 129.867 328.454 132.475 329.479 134.927C330.549 137.378 331.998 139.518 333.825 141.346C335.653 143.174 337.793 144.622 340.245 145.692C342.696 146.717 345.304 147.23 348.068 147.23H353.551C356.315 147.23 358.923 146.717 361.374 145.692C363.826 144.622 365.966 143.174 367.794 141.346C369.621 139.518 371.048 137.378 372.073 134.927ZM364.517 91.1289C365.141 92.5554 365.453 94.0933 365.453 95.7427V127.571C365.453 129.221 365.141 130.781 364.517 132.252C363.893 133.678 363.046 134.927 361.976 135.996C360.906 137.066 359.636 137.913 358.165 138.537C356.738 139.162 355.2 139.474 353.551 139.474H348.068C346.419 139.474 344.858 139.162 343.387 138.537C341.961 137.913 340.713 137.066 339.643 135.996C338.573 134.927 337.726 133.678 337.102 132.252C336.478 130.781 336.166 129.221 336.166 127.571V95.7427C336.166 94.0933 336.478 92.5554 337.102 91.1289C337.726 89.6578 338.573 88.3874 339.643 87.3175C340.713 86.2476 341.961 85.4006 343.387 84.7766C344.858 84.1525 346.419 83.8404 348.068 83.8404H353.551C355.2 83.8404 356.738 84.1525 358.165 84.7766C359.636 85.4006 360.906 86.2476 361.976 87.3175C363.046 88.3874 363.893 89.6578 364.517 91.1289Z" fill="white"/>
<path fill-rule="evenodd" clip-rule="evenodd" d="M429.017 127.103C429.017 129.867 428.482 132.475 427.412 134.927C426.387 137.378 424.96 139.518 423.133 141.346C421.305 143.174 419.165 144.622 416.713 145.692C414.262 146.717 411.654 147.23 408.89 147.23H403.407C400.643 147.23 398.035 146.717 395.583 145.692C393.132 144.622 390.992 143.174 389.164 141.346C387.337 139.518 385.888 137.378 384.818 134.927C383.793 132.475 383.28 129.867 383.28 127.103V96.2108C383.28 93.4469 383.793 90.8391 384.818 88.3874C385.888 85.9356 387.337 83.7958 389.164 81.9682C390.992 80.1405 393.132 78.714 395.583 77.6887C398.035 76.6188 400.643 76.0839 403.407 76.0839H408.89C411.654 76.0839 414.262 76.6188 416.713 77.6887C419.165 78.714 421.305 80.1405 423.133 81.9682C424.96 83.7958 426.387 85.9356 427.412 88.3874C428.482 90.8391 429.017 93.4469 429.017 96.2108V127.103ZM420.792 95.7427C420.792 94.0933 420.48 92.5554 419.856 91.1289C419.232 89.6578 418.385 88.3874 417.315 87.3175C416.245 86.2476 414.975 85.4006 413.504 84.7766C412.077 84.1525 410.539 83.8404 408.89 83.8404H403.407C401.758 83.8404 400.197 84.1525 398.726 84.7766C397.3 85.4006 396.052 86.2476 394.982 87.3175C393.912 88.3874 393.065 89.6578 392.441 91.1289C391.817 92.5554 391.505 94.0933 391.505 95.7427V127.571C391.505 129.221 391.817 130.781 392.441 132.252C393.065 133.678 393.912 134.927 394.982 135.996C396.052 137.066 397.3 137.913 398.726 138.537C400.197 139.162 401.758 139.474 403.407 139.474H408.89C410.539 139.474 412.077 139.162 413.504 138.537C414.975 137.913 416.245 137.066 417.315 135.996C418.385 134.927 419.232 133.678 419.856 132.252C420.48 130.781 420.792 129.221 420.792 127.571V95.7427Z" fill="white"/>
<path d="M456.472 144.489C458.701 145.425 461.064 145.893 463.56 145.893H471.049V138.069H463.56C462.178 138.069 460.886 137.824 459.682 137.334C458.478 136.799 457.431 136.086 456.539 135.194C455.648 134.303 454.934 133.277 454.399 132.118C453.909 130.915 453.664 129.622 453.664 128.24V85.2446H471.049V77.4212H453.664V59.6347L445.439 60.972V77.4212H433.136V85.2446H445.439V127.839C445.439 130.335 445.907 132.675 446.844 134.86C447.824 137.044 449.117 138.961 450.722 140.61C452.371 142.26 454.288 143.552 456.472 144.489Z" fill="white"/>
<path d="M504.322 106.04L524.048 145.893H533.343L508.936 96.612L531.938 50.0059H522.644L504.322 87.1169L485.934 50.0059H476.64L499.642 96.612L475.235 145.893H484.597L504.322 106.04Z" fill="white"/>
<path fill-rule="evenodd" clip-rule="evenodd" d="M116.986 50.0059C100.581 50.0059 86.2362 56.4398 75.1097 64.2235C64.0009 71.9948 55.7798 81.3296 51.5145 87.7425C50.6134 89.0974 50.4279 90.806 51.0173 92.3227L72.8548 148.513L59.8494 171.003L68.5061 176.009L82.7129 151.441C83.4723 150.128 83.5945 148.541 83.0449 147.127L61.3078 91.1953C65.261 85.8477 72.014 78.5931 80.8419 72.4175C90.8629 65.4072 103.236 60.0059 116.986 60.0059C129.982 60.0059 139.43 63.3517 146.331 68.4622C153.264 73.5968 158.004 80.794 161.07 89.0973C166.697 104.338 166.44 122.678 164.159 136.298H120.476L113.044 116.073C118.252 112.369 121.678 106.375 121.678 99.5059C121.678 88.0356 112.125 79.0059 100.678 79.0059C89.2306 79.0059 79.6777 88.0356 79.6777 99.5059C79.6777 110.976 89.2306 120.006 100.678 120.006C101.721 120.006 102.749 119.931 103.755 119.786L112.293 143.022C113.016 144.99 114.89 146.298 116.986 146.298H168.303C170.668 146.298 172.709 144.642 173.196 142.328C176.334 127.422 177.531 104.81 170.451 85.6335C166.879 75.9593 161.128 66.9767 152.282 60.4259C143.404 53.851 131.783 50.0059 116.986 50.0059ZM89.6777 99.5059C89.6777 93.8553 94.4518 89.0059 100.678 89.0059C106.904 89.0059 111.678 93.8553 111.678 99.5059C111.678 105.156 106.904 110.006 100.678 110.006C94.4518 110.006 89.6777 105.156 89.6777 99.5059Z" fill="white"/>
</svg>
