<svg xmlns="http://www.w3.org/2000/svg" xmlns:xlink="http://www.w3.org/1999/xlink" viewBox="0,0,256,256" width="128px" height="128px" fill-rule="nonzero"><g fill="#e96347" fill-rule="nonzero" stroke="none" stroke-width="1" stroke-linecap="butt" stroke-linejoin="miter" stroke-miterlimit="10" stroke-dasharray="" stroke-dashoffset="0" font-family="none" font-weight="none" font-size="none" text-anchor="none" style="mix-blend-mode: normal"><g transform="scale(2,2)"><path d="M63.80078,11.30078c-1.7,0 -3,1.3 -3,3v6.69922c-5.4,1.3 -9.30078,6.20039 -9.30078,11.90039v8c0,4.4 -1.8,8.6 -5,11.5c-6.2,5.5 -9.29922,13.39961 -8.69922,21.59961c1,13 11.49961,23.29922 24.59961,24.19922c0.6,0 1.09922,0.10156 1.69922,0.10156c7,0 13.59961,-2.70117 18.59961,-7.70117c4.9,-5.1 7.60156,-11.69922 7.60156,-18.69922c0,-7.4 -3.20078,-14.6 -8.80078,-19.5c-3.4,-3.1 -5.40039,-7.40078 -5.40039,-11.80078v-7.69922c0,-5.8 -3.99883,-10.60039 -9.29883,-11.90039v-6.69922c0,-1.7 -1.3,-3 -3,-3zM63.69922,26.59961c1.5,1.7 2.5,3.90078 2.5,6.30078v6.29883h-8.69922v-6.29883c0,-3.4 2.79922,-6.20078 6.19922,-6.30078zM57.09961,45.09961h13.59961c1,4.4 3.40039,8.50117 6.90039,11.70117c4.3,3.8 6.80078,9.29961 6.80078,15.09961c0,5.4 -2.1,10.49883 -6,14.29883c-4.2,4.1 -9.80117,6.30039 -15.70117,5.90039c-10,-0.6 -18.19844,-8.59961 -18.89844,-18.59961c-0.5,-6.4 1.99922,-12.39922 6.69922,-16.69922c3.4,-3 5.69961,-7.20117 6.59961,-11.70117zM22,68.90039c-1.7,0 -3,1.3 -3,3c0,1.7 1.3,3 3,3h4.69922c1.7,0 3,-1.3 3,-3c0,-1.7 -1.3,-3 -3,-3zM101.30078,68.90039c-1.7,0 -3,1.3 -3,3c0,1.7 1.4,3 3,3h4.69922c1.7,0 3,-1.3 3,-3c0,-1.7 -1.3,-3 -3,-3zM37.63672,95.19922c-0.7625,0 -1.53672,0.30039 -2.13672,0.90039l-3.30078,3.30078c-1.2,1.2 -1.2,3.09922 0,4.19922c0.6,0.6 1.40156,0.90039 2.10156,0.90039c0.8,0 1.49961,-0.30039 2.09961,-0.90039l3.29883,-3.29883c1.2,-1.2 1.2,-3.10117 0,-4.20117c-0.55,-0.6 -1.3,-0.90039 -2.0625,-0.90039zM90.36328,95.19922c-0.7625,0 -1.5125,0.30039 -2.0625,0.90039c-1.2,1.2 -1.2,3.10117 0,4.20117l3.29883,3.29883c0.6,0.6 1.39961,0.90039 2.09961,0.90039c0.8,0 1.50156,-0.30039 2.10156,-0.90039c1.2,-1.2 1.2,-3.09922 0,-4.19922l-3.30078,-3.30078c-0.6,-0.6 -1.37422,-0.90039 -2.13672,-0.90039zM64,106.09961c-1.7,0 -3,1.3 -3,3v4.59961c0,1.7 1.3,3 3,3c1.7,0 3,-1.3 3,-3v-4.59961c0,-1.7 -1.3,-3 -3,-3z"></path></g></g></svg>